<svg xmlns="http://www.w3.org/2000/svg" width="59.654" height="59.245" viewBox="0 0 59.654 59.245">
  <g id="Group_20" data-name="Group 20" transform="translate(43.904 -241.382) rotate(28.245)" opacity="0.17">
    <path id="Path_4" data-name="Path 4" d="M123.5,223.7c-.094,0-.19.006-.285.013-3.795.665-5.882,4.738-6.184,8.33-.442,3.259.973,7.449,4.5,8.179a3.407,3.407,0,0,0,1.543-.084c4.245-1.445,6.145-6.549,5.532-10.776-.179-2.73-2.207-5.7-5.105-5.662Zm-16.089.175c-2.36.059-4.2,2.488-4.572,4.772-.789,4.524,1.239,10.146,5.882,11.576a3.581,3.581,0,0,0,1.325.037c3.138-.531,4.468-4.1,4.336-6.986-.094-3.8-2.04-8.2-5.932-9.271a3.634,3.634,0,0,0-1.039-.128Zm26.371,12.85c-4.082.248-6.881,4.382-7.28,8.243-.54,2.784.922,6.508,4.052,6.731,4.365-.055,7.342-4.788,7.466-8.861C138.3,240.143,136.732,236.874,133.782,236.725Zm-35.73.917a4.143,4.143,0,0,0-4.013,2.833c-1.514,4.794,1.527,10.865,6.529,11.872a4.107,4.107,0,0,0,4.439-3.223,9.916,9.916,0,0,0-4.969-10.951,4.077,4.077,0,0,0-1.986-.531Zm18.3,8.6a12.321,12.321,0,0,0-9.067,4.372,25.215,25.215,0,0,0-5.1,10.424A4.577,4.577,0,0,0,106.275,267c3.5.1,6.512-2.342,9.994-2.523,2.955-.457,5.6,1.1,8.257,2.124,2.262.981,5.387.605,6.542-1.865.908-2.519-.429-5.2-1.537-7.44-2.258-3.63-4.678-7.445-8.382-9.711a8.874,8.874,0,0,0-4.8-1.344Z" fill="#707070"/>
  </g>
</svg>
