<svg xmlns="http://www.w3.org/2000/svg" width="60.875" height="60.581" viewBox="0 0 60.875 60.581">
  <g id="Group_17" data-name="Group 17" transform="translate(-148.118 -61.88) rotate(-33)" opacity="0.17">
    <path id="Path_1" data-name="Path 1" d="M107.2,152.85c-.094,0-.19.006-.285.013-3.795.665-5.882,4.738-6.184,8.33-.442,3.26.973,7.449,4.5,8.179a3.4,3.4,0,0,0,1.543-.084c4.245-1.445,6.145-6.549,5.532-10.776-.179-2.731-2.206-5.7-5.105-5.662Zm-16.089.175c-2.36.058-4.2,2.488-4.572,4.771-.788,4.524,1.239,10.146,5.883,11.576a3.575,3.575,0,0,0,1.324.037c3.138-.531,4.468-4.1,4.337-6.986-.094-3.8-2.041-8.2-5.933-9.271A3.6,3.6,0,0,0,91.111,153.025Zm26.371,12.849c-4.082.248-6.88,4.383-7.279,8.243-.541,2.784.922,6.509,4.052,6.731,4.364-.055,7.341-4.788,7.465-8.861.276-2.694-1.287-5.964-4.238-6.113Zm-35.73.918a4.14,4.14,0,0,0-4.012,2.832c-1.514,4.794,1.526,10.865,6.528,11.872a4.106,4.106,0,0,0,4.439-3.222,9.916,9.916,0,0,0-4.969-10.951,4.077,4.077,0,0,0-1.986-.531Zm18.3,8.6a12.323,12.323,0,0,0-9.067,4.372,25.216,25.216,0,0,0-5.095,10.424,4.577,4.577,0,0,0,4.085,5.964c3.5.1,6.512-2.342,9.994-2.523,2.954-.458,5.6,1.1,8.256,2.123,2.262.982,5.387.606,6.542-1.865.908-2.518-.429-5.2-1.536-7.439-2.259-3.63-4.679-7.445-8.383-9.712a8.88,8.88,0,0,0-4.8-1.344Z" fill="#707070"/>
  </g>
</svg>
